<svg xmlns="http://www.w3.org/2000/svg" width="24.187" height="24.187" viewBox="0 0 24.187 24.187"><path d="M20.565,5.765A11.99,11.99,0,0,0,1.7,20.229L0,26.437l6.355-1.668a11.949,11.949,0,0,0,5.728,1.458h.005a12.1,12.1,0,0,0,12.1-11.986,12.033,12.033,0,0,0-3.623-8.476ZM12.088,24.208A9.944,9.944,0,0,1,7.013,22.82L6.652,22.6l-3.768.988,1-3.677-.238-.378a9.981,9.981,0,1,1,18.513-5.3,10.073,10.073,0,0,1-10.074,9.966Zm5.464-7.461c-.3-.151-1.771-.875-2.046-.972s-.475-.151-.675.151-.772.972-.95,1.177-.351.227-.648.076a8.152,8.152,0,0,1-4.076-3.563c-.308-.529.308-.491.88-1.636a.555.555,0,0,0-.027-.524c-.076-.151-.675-1.625-.923-2.224-.243-.583-.491-.5-.675-.513s-.373-.011-.572-.011a1.109,1.109,0,0,0-.8.373,3.365,3.365,0,0,0-1.047,2.5,5.867,5.867,0,0,0,1.22,3.1A13.383,13.383,0,0,0,12.331,19.2c1.9.821,2.645.891,3.6.75a3.067,3.067,0,0,0,2.019-1.425,2.5,2.5,0,0,0,.173-1.425C18.049,16.968,17.849,16.892,17.552,16.746Z" transform="translate(0 -2.25)" fill="#fff"/></svg>